<svg id="Calque_1" data-name="Calque 1" xmlns="http://www.w3.org/2000/svg" viewBox="0 0 627.91 649.76"><defs><defs><style>.cls-1{fill:none;}</style></defs>
</defs><path class="cls-1" d="M646.11,539.94q0-161-.07-322.07c0-2.42.65-2.73,2.86-2.73q311,.09,622,0c2.72,0,3,.75,3,3.17q-.09,321.77,0,643.54c0,2.71-.75,3-3.17,3q-310.85-.09-621.7,0c-2.72,0-3-.75-3-3.17Q646.16,700.84,646.11,539.94Z" transform="translate(-646.04 -215.12)"/><path d="M839.42,559.23c0-22.54,0-45.09,0-67.63,0-7.5,2.78-13.46,8.77-18q46.27-35,92.52-70.06a21,21,0,0,1,25.34.29q45.81,34.64,91.64,69.2c6.74,5.07,9.51,11.8,9.54,19.87q.12,28.21,0,56.41c0,12.58-9.17,22.07-20.92,21.87-12-.22-20.45-9.32-20.45-21.9,0-14.76,0-29.52.05-44.28a4.92,4.92,0,0,0-2.25-4.48q-34.15-25.74-68.2-51.65c-1.65-1.25-2.69-1.37-4.38-.08q-34,25.93-68.16,51.67a4.87,4.87,0,0,0-2.15,4.5q.07,48.82,0,97.65c0,2.58.49,3.32,3.22,3.31,40.53-.18,81.06,0,121.59-.37,23.63-.2,44.86,7.66,63.53,20.81,15,10.58,29.88,10.74,46,6.17,10.42-2.94,12.44-13,16.11-21a184.76,184.76,0,0,0,16.77-72.3c.63-24.11-3.9-47.54-12.27-70.22-15.37-41.67-42-74-79.67-97.51A193,193,0,0,0,979,343.72c-32.67-4.46-64.46-.33-95.15,11.29-40,15.13-71.54,40.94-94.45,77.08-16.06,25.33-25.61,53-29.41,82.8-4.32,33.92,2.15,66.19,15.08,97.09,15.17,36.28,40.11,64.91,73.57,85.75,10.88,6.77,22.31,2,33.46-.12,18.27-3.41,35.46-11,54.06-13.38,25.63-3.3,50.93-2.66,75.67,4.95,17.3,5.33,32.89,14.42,47.4,25.15,9.25,6.85,10.78,20.84,3.85,29.41-7.66,9.48-20.55,10.32-30.34,2.52-20.71-16.52-44.49-23.26-70.93-23-25.07.22-47.79,8.58-70.93,16.61-13.43,4.67-27.47,11.5-42.16,5.63-17.79-7.11-33.42-18.1-48.06-30.38A236.25,236.25,0,0,1,719.4,569.89a228,228,0,0,1,10.88-112.58,236,236,0,0,1,55-87.43,233.3,233.3,0,0,1,76.94-51.53,237.25,237.25,0,0,1,76.59-17.69,231.39,231.39,0,0,1,105.86,17.77c45.62,19.26,82.28,49.43,108.79,91.69C1172,439.63,1184,471.51,1188,506c4.69,39.58-.12,78.23-15.2,115.3-3.63,8.92-8.14,17.48-12.31,26.16-6.89,14.35-19.35,20.55-34.15,23.6-20.27,4.18-40.47,9.1-60.37-1.54-10.44-5.58-20.63-11.58-32-15.45a106.59,106.59,0,0,0-33.8-5.47c-46.4-.33-92.8-.14-139.2-.14-13,0-21.6-8.62-21.6-21.58Z" transform="translate(-646.04 -215.12)"/></svg>